<?xml version="1.0" ?><svg height="28px" version="1.1" viewBox="0 0 28 28" width="28px" xmlns="http://www.w3.org/2000/svg" xmlns:sketch="http://www.bohemiancoding.com/sketch/ns" xmlns:xlink="http://www.w3.org/1999/xlink"><title/><desc/><defs/><g fill="none" fill-rule="evenodd" id="Page-1" stroke="none" stroke-width="1"><g id="Symbolicons-Color" transform="translate(-644.000000, -1036.000000)"><g id="penguin" transform="translate(644.000000, 1036.000000)"><path d="M23,18 L23,18 C21.49,14.12 20,8.558 20,6 C20,2.7 17.3,0 14,0 C10.701,0 8.001,2.7 8,6 C8,8.558 6.511,14.119 5,18 L7.266,28 L20.829,28 L23,18 L23,18 Z M16,4 C16.553,4 17,4.447 17,5 C17,5.553 16.553,6 16,6 C15.448,6 15,5.553 15,5 C15,4.447 15.448,4 16,4 L16,4 Z M12,4 C12.553,4 13,4.447 13,5 C13,5.553 12.553,6 12,6 C11.448,6 11,5.553 11,5 C11,4.447 11.448,4 12,4 L12,4 Z" fill="#505050" id="Fill-209"/><path d="M14,13 C12.895,13 11.739,11.945 11.285,11 L16.715,11 C16.261,11.945 15.106,13 14,13" fill="#F39C12" id="Fill-210"/><path d="M14,7 C15.933,7 18,10 18,10 L10,10 C10.001,10 12.068,7 14,7" fill="#F39C12" id="Fill-211"/><path d="M19.001,20 C19.001,23.314 16.762,26 14,26 C11.239,26 9,23.314 9,20 C9,16.686 11.239,14 14,14 C16.762,14 19.001,16.686 19.001,20" fill="#FFFFFF" id="Fill-212"/><path d="M9.938,17.79 C9.733,17.159 9.209,16.998 8.772,17.428 L7.851,18.336 C7.415,18.765 6.621,18.822 6.085,18.461 L4.523,17.405 C3.988,17.044 3.487,17.272 3.411,17.914 L3.189,19.786 C3.112,20.428 2.549,20.991 1.94,21.04 L0.651,21.145 C0.039,21.193 -0.18,21.696 0.162,22.263 C0.162,22.263 4.553,29.538 8.563,27.703 C12.573,25.868 9.938,17.79 9.938,17.79" fill="#F39C12" id="Fill-213"/><path d="M27.35,21.145 L26.061,21.04 C25.452,20.991 24.889,20.428 24.812,19.786 L24.589,17.914 C24.514,17.272 24.013,17.044 23.478,17.405 L21.915,18.461 C21.379,18.822 20.585,18.765 20.15,18.336 L19.229,17.428 C18.791,16.998 18.268,17.159 18.063,17.79 C18.063,17.79 15.427,25.868 19.438,27.703 C23.448,29.538 27.838,22.263 27.838,22.263 C28.181,21.696 27.961,21.193 27.35,21.145" fill="#F39C12" id="Fill-214"/></g></g></g></svg>